<?xml version="1.0" encoding="utf-8"?>
<!-- Generator: Adobe Illustrator 25.0.1, SVG Export Plug-In . SVG Version: 6.00 Build 0)  -->
<svg version="1.1" xmlns="http://www.w3.org/2000/svg" xmlns:xlink="http://www.w3.org/1999/xlink" x="0px" y="0px"
	 viewBox="0 0 24 24" enable-background="new 0 0 24 24" xml:space="preserve">
<g id="Calque_1">
	<circle fill="#FBC200" cx="12" cy="12" r="12"/>
	<g>
		<path fill="#FFFFFF" d="M16.4,16c0,0.8,0.7,1.5,1.5,1.5c0.8,0,1.5-0.7,1.5-1.5c0-0.8-0.7-1.5-1.5-1.5C17,14.5,16.4,15.2,16.4,16z
			 M17.2,16c0-0.3,0.3-0.6,0.6-0.6c0.3,0,0.6,0.3,0.6,0.6c0,0.3-0.3,0.6-0.6,0.6C17.5,16.6,17.2,16.4,17.2,16z"/>
		<path fill="#FFFFFF" d="M7.4,16c0,0.8,0.7,1.5,1.5,1.5c0.8,0,1.5-0.7,1.5-1.5c0-0.8-0.7-1.5-1.5-1.5C8.1,14.5,7.4,15.2,7.4,16z
			 M8.3,16c0-0.3,0.3-0.6,0.6-0.6c0.3,0,0.6,0.3,0.6,0.6c0,0.3-0.3,0.6-0.6,0.6C8.5,16.6,8.3,16.4,8.3,16z"/>
		<path fill="#FFFFFF" d="M3,7.5v5.4l7.9,0l0-1.9c0-0.7,0.6-1.3,1.3-1.3c0,0,3.5,0,4,0c0.5,0,0.4-0.3,0.4-0.5c0,0-0.5-2.4-3-2.4
			c-2.5,0-2.1,0-2.1,0l-1.6,0H3.7C3.3,6.8,3,7.1,3,7.5z M5.2,9.4c0-0.1,0.1-0.2,0.2-0.2h3c0.1,0,0.2,0.1,0.2,0.2v1.7
			c0,0.1-0.1,0.2-0.2,0.2h-3c-0.1,0-0.2-0.1-0.2-0.2V9.4z"/>
		<path fill="#FFFFFF" d="M3.9,13.5V15c0,0.4,0.3,0.7,0.7,0.7h2.2c0.1-1,1-1.8,2.1-1.8c1.1,0,2,0.8,2.1,1.8h4.7c0.1-1,1-1.8,2.1-1.8
			c1.1,0,2,0.8,2.1,1.8h0.3c0.4,0,0.7-0.3,0.7-0.7v-0.7h-0.5v-1c0-0.2-4.1-0.9-4.1-0.9l0,0c-0.1-0.2-1-1.5-1.3-2
			c-0.1-0.1-0.2-0.2-0.3-0.2c-0.1,0-2.5,0-2.5,0c-0.3,0-0.6,0.3-0.6,0.6l0,2.5H3.9z M12.5,11.2c0-0.1,0.1-0.3,0.3-0.3h1.3
			c0.1,0,0.3,0.1,0.4,0.2l1.1,1.6c0,0.1,0,0.1,0,0.2c0,0-0.1,0.1-0.1,0.1h-2.7c-0.1,0-0.3-0.1-0.3-0.3V11.2z"/>
	</g>
</g>
<g id="Calque_2">
</g>
</svg>
