<?xml version="1.0" standalone="no"?>
<svg version="1.0"
     xmlns="http://www.w3.org/2000/svg"
     width="120.000000pt"
     height="120.000000pt"
     viewBox="0 0 120.000000 120.000000"
     preserveAspectRatio="xMidYMid meet">

    <rect class="c"
          x="0"
          width="120"
          height="120"
          rx="24.075"
          ry="24.075"
          fill="#165dd6"
    />
    <g transform="translate(0.000000,120.000000) scale(0.100000,-0.100000)"
       fill="#fff">
        <path d="M390 1103 c-39 -14 -40 -22 -40 -498 0 -435 1 -463 18 -478 16 -15
49 -17 251 -17 141 0 240 4 252 10 18 10 19 26 19 485 l0 474 -22 15 c-19 13
-59 16 -243 15 -121 0 -227 -3 -235 -6z m420 -448 l0 -325 -180 0 -180 0 0
325 0 325 180 0 180 0 0 -325z m-162 -428 c2 -12 -3 -17 -17 -17 -15 0 -21 6
-21 21 0 25 33 22 38 -4z"/>
        <path d="M680 740 c-24 -30 -28 -40 -16 -40 12 0 16 -11 16 -45 l0 -45 40 0
40 0 0 49 c0 30 5 51 13 54 8 3 2 15 -17 36 -17 17 -33 31 -37 31 -4 0 -22
-18 -39 -40z"/>
        <path d="M497 693 c-4 -3 -7 -28 -7 -55 0 -31 -4 -48 -12 -48 -7 0 4 -16 23
-36 l34 -35 32 36 c28 33 30 39 18 52 -8 8 -15 32 -15 54 0 38 -1 39 -33 39
-19 0 -37 -3 -40 -7z"/>
    </g>
</svg>
