<?xml version="1.0" encoding="utf-8"?>
<!-- Generator: Adobe Illustrator 25.0.1, SVG Export Plug-In . SVG Version: 6.00 Build 0)  -->
<svg version="1.1" xmlns="http://www.w3.org/2000/svg" xmlns:xlink="http://www.w3.org/1999/xlink" x="0px" y="0px"
	 viewBox="0 0 24 24" enable-background="new 0 0 24 24" xml:space="preserve">
<g id="Calque_1">
	<circle fill="#B51E1D" cx="12" cy="12" r="12"/>
	<g display="none">
		<path display="inline" fill="#4A2718" d="M11.2,19.5C11.2,19.5,11.2,19.5,11.2,19.5c-0.6,0-1.1-0.5-1.1-1.1l0-3.6
			c0-0.6,0.5-1.1,1.1-1.1c0.6,0,1.1,0.5,1.1,1.1l0,3.6C12.3,19,11.8,19.5,11.2,19.5z"/>
		<path display="inline" fill="#007431" d="M6.7,17.3c-0.3,0-0.7-0.2-0.9-0.4c-0.3-0.4-0.3-1,0.1-1.4c0.2-0.2,0.5-0.5,1.3-0.9
			c0,0,0,0,0,0c-0.3,0-0.7-0.2-0.9-0.4c-0.3-0.4-0.3-0.9,0-1.2C6.5,12.5,7,12,8.5,11.1c0,0,0,0-0.1,0c-0.5,0.1-1-0.2-1.2-0.6
			c-0.2-0.5,0-1,0.4-1.3L9.6,8L9.3,8c-0.4,0-0.8-0.3-0.9-0.7C8.2,6.9,8.3,6.5,8.6,6.2l2.5-2.8c0.4-0.4,1.1-0.5,1.5-0.1
			c0.4,0.4,0.5,1.1,0.1,1.5L11.6,6L13,6.1c0.5,0,0.9,0.4,1,0.8C14,7.3,13.9,7.8,13.5,8l-0.9,0.6c0.5,0,1,0.1,1.4,0.2
			c0.4,0.1,0.7,0.5,0.7,1c0,0.5-0.3,0.9-0.7,1c0,0-0.3,0.1-0.7,0.3c1.1-0.1,1.7,0,2,0.2c0.4,0.2,0.7,0.6,0.7,1c0,0.4-0.3,0.9-0.7,1
			c0,0-0.5,0.2-1.2,0.5c1.1,0.1,2.2,0.3,3.2,0.8c0.5,0.2,0.8,0.9,0.6,1.4c-0.2,0.5-0.9,0.8-1.4,0.6c-2.2-0.9-4.6-0.7-6.2-0.4
			c-1.8,0.4-3.1,1-3.1,1C7,17.2,6.9,17.3,6.7,17.3z"/>
	</g>
	<path fill="#FFFFFF" d="M16.1,16.1c0,0.9,0.7,1.6,1.6,1.6c0.9,0,1.6-0.7,1.6-1.6c0-0.9-0.7-1.6-1.6-1.6
		C16.8,14.5,16.1,15.2,16.1,16.1z M17,16.1c0-0.4,0.3-0.6,0.6-0.6c0.4,0,0.6,0.3,0.6,0.6c0,0.4-0.3,0.6-0.6,0.6
		C17.3,16.8,17,16.5,17,16.1z"/>
	<path fill="#FFFFFF" d="M6.7,16.1c0,0.9,0.7,1.6,1.6,1.6c0.9,0,1.6-0.7,1.6-1.6c0-0.9-0.7-1.6-1.6-1.6C7.4,14.5,6.7,15.2,6.7,16.1z
		 M7.6,16.1c0-0.4,0.3-0.6,0.6-0.6c0.4,0,0.6,0.3,0.6,0.6c0,0.4-0.3,0.6-0.6,0.6C7.9,16.8,7.6,16.5,7.6,16.1z"/>
	<path fill="#FFFFFF" d="M3,7.8v4.9l10.4,0l0-1.9c0-0.8,0.6-1.4,1.4-1.4c0,0,3.7,0,4.2,0c0.5,0,0.4-0.3,0.3-0.5l-1.1-2.3
		c-0.1-0.2-0.4-0.2-0.4-0.2l-3.7,0l-1.7,0.8H3.7C3.3,7.1,3,7.4,3,7.8z M16,7.6c0-0.1,0.1-0.2,0.2-0.2h1.2c0.1,0,0.3,0,0.4,0.2
		l0.5,1.1c0.1,0.2,0,0.2-0.1,0.2h-2c-0.1,0-0.2-0.1-0.2-0.2V7.6z M6,9.1C6,9,6.1,8.9,6.2,8.9h4.1c0.1,0,0.2,0.1,0.2,0.2v1.8
		c0,0.1-0.1,0.2-0.2,0.2H6.2C6.1,11.1,6,11,6,10.9V9.1z"/>
	<path fill="#FFFFFF" d="M3,13.4v1.7c0,0.4,0.3,0.7,0.7,0.7H6c0.1-1.1,1.1-1.9,2.2-1.9c1.2,0,2.1,0.8,2.2,1.9h5
		c0.1-1.1,1.1-1.9,2.2-1.9c1.2,0,2.1,0.8,2.2,1.9h0.3c0.4,0,0.7-0.3,0.7-0.7v-0.7h-0.6v-1c0-0.2,0-0.4-0.5-0.6l-0.8-0.3l0,0
		c-0.1-0.2-1.1-1.6-1.4-2.1c-0.1-0.1-0.2-0.2-0.3-0.2c-0.1,0-2.6,0-2.6,0c-0.4,0-0.7,0.3-0.7,0.7l0,2.6H3z M15.2,11
		c0-0.2,0.1-0.3,0.3-0.3h1.4c0.1,0,0.3,0.1,0.4,0.2l1.2,1.7c0,0.1,0.1,0.1,0,0.2c0,0-0.1,0.1-0.2,0.1h-2.9c-0.2,0-0.3-0.1-0.3-0.3
		V11z"/>
</g>
<g id="Calque_2">
</g>
</svg>
