<?xml version="1.0" encoding="UTF-8"?><svg id="a" xmlns="http://www.w3.org/2000/svg" viewBox="0 0 32 32"><defs><style>.b{fill:#fff;}.c{fill:#165dd6;}</style></defs><rect class="c" width="32" height="32" rx="6.42" ry="6.42"/><path class="b" d="M17.52,11.49s-4.82-.03-7.28,0c.25,3.08,2.02,3.48,2.02,3.48v3.73h6.44l.06-4.32,1.03-1.74h1.68V3.47h-3.98l.03,8.03Z"/><rect class="b" x="9.88" y="10" width="7.9" height=".9"/><polygon class="b" points="13.83 20.17 17.97 20.17 15.92 22.52 13.83 20.17"/><polygon class="b" points="20.83 27.56 10.69 27.56 10.69 23.52 5.12 23.52 5.12 22.65 11.56 22.65 11.56 26.69 19.96 26.69 19.96 22.65 26.37 22.65 26.37 23.52 20.83 23.52 20.83 27.56"/><path class="b" d="M13.4,24.07c.3-.18,.64-.31,.99-.35,.06,0,.13-.01,.2-.01,.02,0,.05,0,.07,0,.05,0-.05-.01,0,0,.12,.03,.11,.02,.2,.08s.11,.07,.17,.12c.07,.06,.15,.13,.22,.2,.3,.29,.61,.6,1.02,.74,.48,.17,1.02,0,1.45-.22,.31-.16,.61-.37,.86-.62,.28-.28-.16-.72-.44-.44-.2,.2-.36,.31-.62,.46-.2,.12-.42,.21-.65,.25-.09,.01-.2,.02-.29,0,.04,0-.07-.02-.08-.02-.05-.02-.05-.01-.08-.03-.34-.16-.58-.46-.87-.72-.14-.13-.29-.25-.47-.33-.22-.1-.44-.12-.68-.09-.45,.05-.9,.2-1.29,.43-.34,.21-.03,.75,.31,.54h0Z"/><path class="b" d="M13.43,25.5c.3-.18,.64-.31,.99-.35,.06,0,.13-.01,.2-.01,.02,0,.05,0,.07,0,.05,0-.05-.01,0,0,.12,.03,.11,.02,.2,.08s.11,.07,.17,.12c.07,.06,.15,.13,.22,.2,.3,.29,.61,.6,1.02,.74,.48,.17,1.02,0,1.45-.22,.31-.16,.61-.37,.86-.62,.28-.28-.16-.72-.44-.44-.2,.2-.36,.31-.62,.46-.2,.12-.42,.21-.65,.25-.09,.01-.2,.02-.29,0,.04,0-.07-.02-.08-.02-.05-.02-.05-.01-.08-.03-.34-.16-.58-.46-.87-.72-.14-.13-.29-.25-.47-.33-.22-.1-.44-.12-.68-.09-.45,.05-.9,.2-1.29,.43-.34,.21-.03,.75,.31,.54h0Z"/></svg>