<?xml version="1.0" encoding="UTF-8"?><svg id="a" xmlns="http://www.w3.org/2000/svg" viewBox="0 0 32 32"><defs><style>.b{fill:#fff;}.c{fill:#165dd6;}</style></defs><rect class="c" width="32" height="32" rx="6.42" ry="6.42"/><path class="b" d="M8.56,15.66c-1.07,0-1.94,.87-1.94,1.94,0,1.07,.87,1.94,1.94,1.94s1.95-.87,1.95-1.94-.87-1.94-1.95-1.94Zm0,2.75c-.44,0-.8-.36-.8-.8,0-.44,.36-.8,.8-.8s.8,.36,.8,.8c0,.44-.36,.8-.8,.8Z"/><path class="b" d="M20.24,15.66c-1.07,0-1.94,.87-1.94,1.94,0,1.07,.87,1.94,1.94,1.94s1.94-.87,1.94-1.94c0-1.07-.87-1.94-1.94-1.94Zm0,2.75c-.44,0-.8-.36-.8-.8,0-.44,.36-.8,.8-.8s.8,.36,.8,.8c0,.44-.36,.8-.8,.8Z"/><path class="b" d="M25.88,6.43H15.1l-2.06-.94h-4.6s-.33-.04-.45,.23l-1.38,2.9c-.12,.29-.36,.65,.32,.65h5.25c.95,0,1.72,.77,1.72,1.72v2.38h12.87V7.32c0-.49-.4-.89-.89-.89Zm-15.24,1.86c0,.17-.13,.3-.3,.3h-2.47c-.18,0-.26-.06-.15-.28l.64-1.31c.07-.22,.28-.23,.44-.23h1.54c.17,0,.3,.13,.3,.3v1.22Zm12.39,2.83c0,.14-.11,.25-.25,.25h-5.04c-.14,0-.25-.11-.25-.25v-2.25c0-.14,.11-.25,.25-.25h5.04c.14,0,.25,.11,.25,.25v2.25Z"/><path class="b" d="M12.99,14.26v-3.28c0-.45-.37-.82-.82-.82,0,0-3.08,0-3.24,0-.16,0-.31,.08-.4,.21-.42,.62-1.61,2.37-1.75,2.57l-.03,.05-.97,.38c-.56,.25-.61,.51-.61,.77v1.29h-.7v.89c0,.49,.4,.89,.89,.89h.4c.13-1.33,1.32-2.37,2.79-2.37s2.66,1.04,2.79,2.37h6.18c.13-1.33,1.32-2.37,2.79-2.37s2.66,1.04,2.79,2.37h2.8c.49,0,.89-.4,.89-.89v-2.06H12.99Zm-1.31-.95c0,.19-.15,.34-.34,.34h-3.56c-.09,0-.16-.03-.19-.09-.03-.06-.02-.13,.03-.21l1.45-2.13c.1-.15,.33-.27,.52-.27h1.75c.19,0,.34,.15,.34,.34v2.02Z"/><polygon class="b" points="20.86 27.3 10.18 27.3 10.18 22.34 3.2 22.36 3.2 21.47 11.08 21.44 11.08 26.4 19.97 26.4 19.97 21.44 28.15 21.35 28.16 22.25 20.86 22.33 20.86 27.3"/><polygon class="b" points="17.69 19.38 15.66 21.8 13.51 19.38 17.69 19.38"/><path class="b" d="M16.51,24.28c-.47,0-.93-.2-1.38-.61-.4-.36-.8-.53-1.21-.51-.62,.03-1.06,.51-1.06,.51-.1,.11-.27,.12-.38,.02-.11-.1-.12-.27-.02-.38,.02-.03,.58-.65,1.43-.7,.56-.03,1.1,.19,1.61,.66,.38,.34,.76,.5,1.13,.46,.61-.06,1.04-.64,1.04-.65,.09-.12,.26-.15,.38-.06,.12,.09,.15,.26,.06,.38-.02,.03-.56,.78-1.42,.87-.06,0-.12,0-.17,0Z"/><path class="b" d="M16.5,25.72c-.47,0-.94-.2-1.39-.61-.53-.48-1.06-.62-1.6-.44-.42,.14-.69,.44-.69,.44-.1,.11-.27,.12-.38,.02-.11-.1-.12-.27-.02-.38,.02-.03,.59-.65,1.44-.69,.56-.03,1.11,.19,1.62,.65,.38,.35,.77,.5,1.14,.46,.62-.06,1.05-.64,1.05-.65,.09-.12,.26-.15,.38-.06,.12,.09,.15,.26,.06,.38-.02,.03-.57,.78-1.43,.87-.06,0-.12,0-.18,0Z"/></svg>