<?xml version="1.0" encoding="utf-8"?>
<!-- Generator: Adobe Illustrator 25.0.1, SVG Export Plug-In . SVG Version: 6.00 Build 0)  -->
<svg version="1.1" xmlns="http://www.w3.org/2000/svg" xmlns:xlink="http://www.w3.org/1999/xlink" x="0px" y="0px"
	 viewBox="0 0 24 24" enable-background="new 0 0 24 24" xml:space="preserve">
<g id="Calque_1">
	<circle fill="#40291A" cx="12" cy="12" r="12"/>
</g>
<g id="Calque_2">
	<g>
		<path fill="#FFFFFF" d="M15.6,13.3c0,0.8,0.6,1.4,1.4,1.4c0.8,0,1.4-0.6,1.4-1.4s-0.6-1.4-1.4-1.4C16.3,11.9,15.6,12.6,15.6,13.3z
			 M16.5,13.3c0-0.3,0.3-0.6,0.6-0.6c0.3,0,0.6,0.3,0.6,0.6c0,0.3-0.3,0.6-0.6,0.6C16.7,13.9,16.5,13.7,16.5,13.3z"/>
		<path fill="#FFFFFF" d="M7.2,13.3c0,0.8,0.6,1.4,1.4,1.4c0.8,0,1.4-0.6,1.4-1.4s-0.6-1.4-1.4-1.4C7.8,11.9,7.2,12.6,7.2,13.3z
			 M8,13.3c0-0.3,0.3-0.6,0.6-0.6c0.3,0,0.6,0.3,0.6,0.6c0,0.3-0.3,0.6-0.6,0.6C8.3,13.9,8,13.7,8,13.3z"/>
		<path fill="#FFFFFF" d="M3.9,5.9v4.4l9.3,0l0-1.7c0-0.7,0.6-1.2,1.2-1.2c0,0,3.3,0,3.8,0c0.5,0,0.3-0.3,0.2-0.5l-1-2.1
			c-0.1-0.2-0.3-0.2-0.3-0.2l-3.3,0l-1.5,0.7H4.6C4.2,5.3,3.9,5.6,3.9,5.9z M15.5,5.7c0-0.1,0.1-0.2,0.2-0.2h1.1
			c0.1,0,0.3,0,0.3,0.2l0.5,0.9c0.1,0.2,0,0.2-0.1,0.2h-1.8c-0.1,0-0.2-0.1-0.2-0.2V5.7z M6.6,7c0-0.1,0.1-0.2,0.2-0.2h3.6
			c0.1,0,0.2,0.1,0.2,0.2v1.6c0,0.1-0.1,0.2-0.2,0.2H6.8c-0.1,0-0.2-0.1-0.2-0.2V7z"/>
		<path fill="#FFFFFF" d="M3.9,10.9v1.5c0,0.4,0.3,0.6,0.6,0.6h2c0.1-1,1-1.7,2-1.7c1.1,0,1.9,0.8,2,1.7H15c0.1-1,1-1.7,2-1.7
			c1.1,0,1.9,0.8,2,1.7h0.3c0.4,0,0.6-0.3,0.6-0.6v-0.6h-0.5v-0.9c0-0.2,0-0.4-0.4-0.6L18.4,10l0,0c-0.1-0.1-1-1.4-1.3-1.9
			C17,8,16.9,8,16.8,8c-0.1,0-2.3,0-2.3,0c-0.3,0-0.6,0.3-0.6,0.6l0,2.4H3.9z M14.8,8.8c0-0.1,0.1-0.2,0.2-0.2h1.3
			c0.1,0,0.3,0.1,0.4,0.2l1,1.5c0,0.1,0,0.1,0,0.2c0,0-0.1,0.1-0.1,0.1H15c-0.1,0-0.2-0.1-0.2-0.2V8.8z"/>
		<path fill="#FFFFFF" d="M3,15.7"/>
		<path fill="#FFFFFF" d="M8.6,15.7"/>
		<polygon fill="#FFFFFF" points="15.7,19.4 8.5,19.4 8.5,15.8 3,15.8 3,15.6 8.7,15.6 8.7,19.2 15.5,19.2 15.5,15.6 21,15.7 
			21,15.8 15.7,15.8 		"/>
		<polygon fill="#FFFFFF" points="11.3,13.8 12,15.4 12.8,13.8 		"/>
		<path fill="#FFFFFF" d="M13.4,16.8c-0.4,0-0.8-0.1-1.3-0.4c-0.6-0.4-1.3-0.5-1.9-0.3c-0.5,0.1-0.8,0.4-0.8,0.4c0,0-0.1,0-0.1,0
			c0,0,0-0.1,0-0.1c0,0,0.3-0.3,0.8-0.4c0.5-0.1,1.2-0.1,2,0.4c0.6,0.4,1.2,0.5,1.9,0.3c0.5-0.2,0.7-0.4,0.7-0.4c0,0,0.1,0,0.1,0
			c0,0,0,0.1,0,0.1c0,0-0.3,0.3-0.8,0.5C13.9,16.8,13.7,16.8,13.4,16.8z"/>
		<path fill="#FFFFFF" d="M13.4,17.7c-0.4,0-0.8-0.1-1.3-0.4c-0.6-0.4-1.3-0.5-1.9-0.3c-0.5,0.1-0.8,0.4-0.8,0.4c0,0-0.1,0-0.1,0
			c0,0,0-0.1,0-0.1c0,0,0.3-0.3,0.8-0.4c0.5-0.1,1.2-0.1,2,0.4c0.6,0.4,1.2,0.5,1.9,0.3c0.5-0.2,0.7-0.4,0.7-0.4c0,0,0.1,0,0.1,0
			c0,0,0,0.1,0,0.1c0,0-0.3,0.3-0.8,0.5C13.9,17.7,13.7,17.7,13.4,17.7z"/>
		<path fill="#FFFFFF" d="M13.4,18.7c-0.4,0-0.8-0.1-1.3-0.4c-0.6-0.4-1.3-0.5-1.9-0.3c-0.5,0.1-0.8,0.4-0.8,0.4c0,0-0.1,0-0.1,0
			c0,0,0-0.1,0-0.1c0,0,0.3-0.3,0.8-0.4c0.5-0.1,1.2-0.1,2,0.4c0.6,0.4,1.2,0.5,1.9,0.3c0.5-0.2,0.7-0.4,0.7-0.4c0,0,0.1,0,0.1,0
			c0,0,0,0.1,0,0.1c0,0-0.3,0.3-0.8,0.5C13.9,18.6,13.7,18.7,13.4,18.7z"/>
	</g>
</g>
</svg>
