<?xml version="1.0" encoding="utf-8"?>
<!-- Generator: Adobe Illustrator 25.0.1, SVG Export Plug-In . SVG Version: 6.00 Build 0)  -->
<svg version="1.1" xmlns="http://www.w3.org/2000/svg" xmlns:xlink="http://www.w3.org/1999/xlink" x="0px" y="0px"
	 viewBox="0 0 24 24" enable-background="new 0 0 24 24" xml:space="preserve">
<g id="Calque_1">
	<circle fill="#3C6292" cx="12" cy="12" r="12"/>
	<g>
		<polygon fill="#FFFFFF" points="3,8.8 3,10.7 4.8,10.7 4.8,13.5 6.4,13.5 6.4,10.8 17.2,10.8 17.2,13.5 18.8,13.5 18.8,10.8 
			21,10.8 21,8.8 		"/>
		<g>
			<polygon fill="#FFFFFF" points="8.9,3.6 8,8.2 11.3,8.2 11.3,3.6 			"/>
			<polygon fill="#FFFFFF" points="7.7,11.8 6.2,20.4 11.3,20.4 11.3,11.8 			"/>
			<polygon fill="#FFFFFF" points="15.1,3.6 16,8.3 12.7,8.3 12.7,3.6 			"/>
			<polygon fill="#FFFFFF" points="16.3,11.8 17.8,20.4 12.7,20.4 12.7,11.8 			"/>
		</g>
	</g>
</g>
<g id="Calque_2">
</g>
</svg>
