<?xml version="1.0" encoding="utf-8"?>
<!-- Generator: Adobe Illustrator 25.0.1, SVG Export Plug-In . SVG Version: 6.00 Build 0)  -->
<svg version="1.1" xmlns="http://www.w3.org/2000/svg" xmlns:xlink="http://www.w3.org/1999/xlink" x="0px" y="0px"
	 viewBox="0 0 32 32" enable-background="new 0 0 32 32" xml:space="preserve">
<g id="Calque_1">
	<circle fill="#007431" cx="16" cy="16" r="16"/>
	<g display="none">
		<path display="inline" fill="#4A2718" d="M15.2,23.5C15.2,23.5,15.2,23.5,15.2,23.5c-0.6,0-1.1-0.5-1.1-1.1l0-3.6
			c0-0.6,0.5-1.1,1.1-1.1c0.6,0,1.1,0.5,1.1,1.1l0,3.6C16.3,23,15.8,23.5,15.2,23.5z"/>
		<path display="inline" fill="#007431" d="M10.7,21.3c-0.3,0-0.7-0.2-0.9-0.4c-0.3-0.4-0.3-1,0.1-1.4c0.2-0.2,0.5-0.5,1.3-0.9
			c0,0,0,0,0,0c-0.3,0-0.7-0.2-0.9-0.4c-0.3-0.4-0.3-0.9,0-1.2c0.2-0.4,0.7-0.9,2.2-1.8c0,0,0,0-0.1,0c-0.5,0.1-1-0.2-1.2-0.6
			c-0.2-0.5,0-1,0.4-1.3l1.9-1.2l-0.3,0c-0.4,0-0.8-0.3-0.9-0.7c-0.2-0.4-0.1-0.8,0.2-1.1l2.5-2.8c0.4-0.4,1.1-0.5,1.5-0.1
			c0.4,0.4,0.5,1.1,0.1,1.5L15.6,10l1.3,0.1c0.5,0,0.9,0.4,1,0.8s-0.1,0.9-0.5,1.2l-0.9,0.6c0.5,0,1,0.1,1.4,0.2
			c0.4,0.1,0.7,0.5,0.7,1s-0.3,0.9-0.7,1c0,0-0.3,0.1-0.7,0.3c1.1-0.1,1.7,0,2,0.2c0.4,0.2,0.7,0.6,0.7,1c0,0.4-0.3,0.9-0.7,1
			c0,0-0.5,0.2-1.2,0.5c1.1,0.1,2.2,0.3,3.2,0.8c0.5,0.2,0.8,0.9,0.6,1.4c-0.2,0.5-0.9,0.8-1.4,0.6c-2.2-0.9-4.6-0.7-6.2-0.4
			c-1.8,0.4-3.1,1-3.1,1C11,21.2,10.9,21.3,10.7,21.3z"/>
	</g>
	<path fill="#FFFFFF" d="M21.5,21c0,1.2,0.9,2.1,2.1,2.1c1.2,0,2.1-0.9,2.1-2.1c0-1.2-0.9-2.1-2.1-2.1C22.4,18.9,21.5,19.8,21.5,21z
		 M22.7,21c0-0.5,0.4-0.9,0.9-0.9c0.5,0,0.9,0.4,0.9,0.9c0,0.5-0.4,0.9-0.9,0.9C23.1,21.8,22.7,21.5,22.7,21z"/>
	<path fill="#FFFFFF" d="M8.9,21c0,1.2,0.9,2.1,2.1,2.1c1.2,0,2.1-0.9,2.1-2.1c0-1.2-0.9-2.1-2.1-2.1C9.9,18.9,8.9,19.8,8.9,21z
		 M10.2,21c0-0.5,0.4-0.9,0.9-0.9c0.5,0,0.9,0.4,0.9,0.9c0,0.5-0.4,0.9-0.9,0.9C10.5,21.8,10.2,21.5,10.2,21z"/>
	<path fill="#FFFFFF" d="M4,9.9v6.5l13.8,0l0-2.6c0-1,0.8-1.9,1.9-1.9c0,0,4.9,0,5.6,0c0.7,0,0.5-0.4,0.3-0.7l-1.5-3.1
		c-0.1-0.3-0.5-0.2-0.5-0.2l-4.9,0l-2.2,1H5C4.4,9,4,9.4,4,9.9z M21.4,9.7c0-0.2,0.1-0.3,0.3-0.3h1.7c0.2,0,0.4,0,0.5,0.2l0.7,1.4
		c0.1,0.2,0,0.3-0.2,0.3h-2.7c-0.2,0-0.3-0.1-0.3-0.3V9.7z M8,11.6c0-0.2,0.1-0.3,0.3-0.3h5.4c0.1,0,0.3,0.1,0.3,0.3V14
		c0,0.2-0.1,0.3-0.3,0.3H8.3C8.1,14.3,8,14.2,8,14V11.6z"/>
	<path fill="#FFFFFF" d="M4,17.4v2.2c0,0.5,0.4,1,1,1h3c0.1-1.4,1.4-2.6,3-2.6c1.6,0,2.9,1.1,3,2.6h6.6c0.1-1.4,1.4-2.6,3-2.6
		c1.6,0,2.9,1.1,3,2.6H27c0.5,0,1-0.4,1-1v-1h-0.8v-1.4c0-0.3,0-0.6-0.7-0.8l-1-0.4l0-0.1c-0.1-0.2-1.4-2.1-1.9-2.8
		c-0.1-0.1-0.3-0.2-0.4-0.2c-0.2,0-3.5,0-3.5,0c-0.5,0-0.9,0.4-0.9,0.9l0,3.5H4z M20.2,14.2c0-0.2,0.2-0.4,0.4-0.4h1.9
		c0.2,0,0.4,0.1,0.6,0.3l1.6,2.3c0.1,0.1,0.1,0.2,0,0.2c0,0.1-0.1,0.1-0.2,0.1h-3.8c-0.2,0-0.4-0.2-0.4-0.4V14.2z"/>
</g>
<g id="Calque_2">
</g>
</svg>
