<?xml version="1.0" encoding="UTF-8"?><svg id="a" xmlns="http://www.w3.org/2000/svg" viewBox="0 0 32 32"><defs><style>.b{fill:#fff;}.c{fill:#165dd6;}</style></defs><rect class="c" width="32" height="32" rx="6.42" ry="6.42"/><circle class="b" cx="9.97" cy="7.62" r="1.66"/><circle class="b" cx="22.47" cy="7.62" r="1.66"/><path class="b" d="M24.42,9.97s1.25-.2,1.49,.87,1.28,4.46,1.4,4.92,.15,1.05-.32,1.22-.9-.17-1.05-.64-1.08-3.67-1.08-3.67c0,0-.09-.67-.44-.52s0,.76,0,.76l2.13,7.37h-1.66v5.56s-.2,.76-.93,.76-.96-.76-.96-.76v-5.56h-.73v5.56s.06,.7-.84,.76-1.02-.58-1.02-.58v-5.71l-1.63-.03,2.24-7.48s.12-.52-.15-.61-.5,.61-.5,.61c0,0-.9,3.15-.99,3.55s-.5,.84-.99,.73-.64-.67-.52-1.08,1.4-4.92,1.4-4.92c0,0,.26-1.14,1.54-1.14s3.61,.03,3.61,.03Z"/><path class="b" d="M8.05,9.95s-2.3,0-2.3,1.95v5.3s.03,.87,.73,.9,.79-.87,.79-.87v-4.11s0-.5,.32-.5,.35,.55,.35,.55l-.03,12.46s.03,.96,.84,.96,.9-.84,.9-.84v-8.01h.64v8.1s.12,.73,.82,.76,.87-.79,.87-.79V13.03s.15-.44,.38-.44,.35,.44,.35,.44v4.37s.17,.67,.73,.7,.79-.73,.79-.73v-6.03s-.29-1.4-2.3-1.4h-3.87Z"/><rect class="b" x="15.6" y="5.96" width="1.11" height="20.85"/></svg>