<?xml version="1.0" encoding="UTF-8"?><svg id="a" xmlns="http://www.w3.org/2000/svg" viewBox="0 0 32 32"><defs><style>.b{fill:#fff;}.c{fill:#165dd6;}</style></defs><rect class="c" x="0" width="32" height="32" rx="6.42" ry="6.42"/><polygon class="b" points="13.36 27.27 7.6 27.27 5.78 18.1 7.1 17.84 8.7 25.92 12.25 25.92 13.86 17.84 15.18 18.1 13.36 27.27"/><rect class="b" x="9.73" y="19.39" width="1.47" height="1.47"/><circle class="b" cx="9.85" cy="14.86" r="1.01"/><circle class="b" cx="10.86" cy="17.34" r="1.01"/><path class="b" d="M15.6,12.38h-2.94s-.92,.15-.95,.73,.83,.73,.83,.73h4.01l.69-1,1.27-1.82v14.84s-.09,1.41,1.13,1.41,1.07-1.41,1.07-1.41v-7.9s.06-.89,.64-.89,.64,.89,.64,.89v7.9s-.15,1.41,1.1,1.41,1.1-1.47,1.1-1.47V11.37s0-.55,.24-.58,.28,.58,.28,.58v4.68s-.09,1.29,.77,1.29,.73-1.25,.73-1.25l.03-5.39s.09-.67-.77-1.59-2.51-.8-2.51-.8h-3.03s-1.81,0-2.48,1.07-1.87,3-1.87,3Z"/><circle class="b" cx="21.25" cy="5.94" r="2.19"/></svg>