<?xml version="1.0" encoding="UTF-8"?><svg id="a" xmlns="http://www.w3.org/2000/svg" viewBox="0 0 32 32"><defs><style>.b{fill:#fff;}.c{fill:#165dd6;}</style></defs><rect class="c" width="32" height="32" rx="6.42" ry="6.42"/><polygon class="b" points="23.63 27.25 7.63 27.25 7.63 24.94 3.47 24.94 3.47 23.35 9.22 23.35 9.22 25.66 22.04 25.66 22.04 6.72 16.43 6.72 16.43 7.6 14.84 7.6 14.84 5.13 23.63 5.13 23.63 27.25"/><polygon class="b" points="13.32 9.82 13.32 8.85 15.68 6.79 17.89 8.89 17.89 9.82 13.32 9.82"/><path class="b" d="M11.33,19.03l1.04-2.8,1.65-4.44,.38-1.02c.06-.15-.06-.33-.21-.37-.17-.05-.31,.06-.37,.21l-1.04,2.8-1.65,4.44-.38,1.02c-.06,.15,.06,.33,.21,.37,.17,.05,.31-.06,.37-.21h0Z"/><path class="b" d="M13.61,19.3l.51-2.81,.81-4.48,.19-1.03c.03-.16-.04-.32-.21-.37-.15-.04-.34,.05-.37,.21l-.51,2.81-.81,4.48-.19,1.03c-.03,.16,.04,.32,.21,.37,.15,.04,.34-.05,.37-.21h0Z"/><path class="b" d="M15.9,19.22V11.12c0-.39-.6-.39-.6,0v8.1c0,.39,.6,.39,.6,0h0Z"/><path class="b" d="M18.17,19.2l-.51-2.84-.81-4.48-.18-1.03c-.03-.16-.22-.25-.37-.21-.17,.05-.24,.21-.21,.37l.51,2.84,.81,4.48,.18,1.03c.03,.16,.22,.25,.37,.21,.17-.05,.24-.21,.21-.37h0Z"/><path class="b" d="M20.36,19.38l-.99-2.97-1.57-4.72-.36-1.07c-.12-.36-.7-.21-.58,.16l.99,2.97,1.57,4.72,.36,1.07c.12,.36,.7,.21,.58-.16h0Z"/></svg>