<?xml version="1.0" encoding="UTF-8"?><svg id="a" xmlns="http://www.w3.org/2000/svg" viewBox="0 0 32 32"><defs><style>.b{fill:#fff;}.c{fill:#165dd6;}</style></defs><rect class="c" width="32" height="32" rx="6.42" ry="6.42"/><path class="b" d="M13.17,4.59c-2.68,0-4.85,2.17-4.85,4.85s2.17,4.85,4.85,4.85,4.85-2.17,4.85-4.85-2.17-4.85-4.85-4.85Zm-1.13,5.55c0,.43-.35,.78-.78,.78h-.13c-.43,0-.78-.35-.78-.78v-1.6c0-.43,.35-.78,.78-.78h.13c.43,0,.78,.35,.78,.78v1.6Zm3.79,0c0,.43-.35,.78-.78,.78h-.13c-.43,0-.78-.35-.78-.78v-1.6c0-.43,.35-.78,.78-.78h.13c.43,0,.78,.35,.78,.78v1.6Z"/><path class="b" d="M14.97,26.89c-.52,0-.82-.19-.99-.36-.2-.2-.26-.42-.26-.55,0-.37,0-1.18,0-1.86,1.59-.26,2.84-1.52,3.05-3.08h.03v-1.67h1.05v-1.21h-2.19v-2.29c0-.34-.28-.62-.62-.62s-.62,.28-.62,.62v2.29h-2.48v-2.29c0-.34-.28-.62-.62-.62s-.62,.28-.62,.62v2.29h-2.38v1.21h1.08v1.67h.03c.21,1.56,1.45,2.81,3.03,3.08,0,.68,0,1.48,0,1.84-.01,.52,.22,1.06,.63,1.48,.47,.48,1.14,.74,1.87,.74h.04c1.79-.02,10.39,0,10.48,0v-1.27c-.08,0-8.69-.02-10.49,0Z"/></svg>