<?xml version="1.0" standalone="no"?>
<svg version="1.0"
     xmlns="http://www.w3.org/2000/svg"
     width="120.000000pt"
     height="120.000000pt"
     viewBox="0 0 120.000000 120.000000"
     preserveAspectRatio="xMidYMid meet">

    <rect class="c"
          x="0"
          width="120"
          height="120"
          rx="24.075"
          ry="24.075"
          fill="#165dd6"
    />
<g transform="translate(0.000000,120.000000) scale(0.100000,-0.100000)"
fill="#fff" stroke="none">
<path d="M540 997 l0 -52 -105 -65 c-58 -35 -105 -68 -105 -72 0 -4 12 -16 27
-25 24 -16 52 -18 238 -17 160 1 217 4 239 15 16 8 28 19 27 24 0 6 -57 39
-125 75 l-125 65 -7 53 c-6 49 -8 52 -35 52 -28 0 -29 -1 -29 -53z"/>
<path d="M767 693 c7 -37 18 -72 22 -76 14 -14 45 -4 49 15 4 18 -62 128 -77
128 -5 0 -2 -30 6 -67z"/>
<path d="M371 690 c-24 -35 -40 -67 -37 -76 9 -23 37 -29 51 -11 14 19 41 135
33 142 -3 3 -24 -22 -47 -55z"/>
<path d="M464 669 c-27 -69 -28 -72 -9 -85 17 -12 8 -14 -72 -14 -84 0 -94 -2
-123 -26 -20 -18 -30 -34 -28 -48 3 -20 9 -21 141 -24 l137 -3 0 -119 0 -120
98 0 97 -1 20 -32 c16 -25 28 -33 58 -35 42 -4 64 10 78 45 7 19 16 23 54 23
42 0 46 2 60 36 11 26 15 73 15 164 0 151 14 140 -163 140 -105 0 -117 2 -103
15 13 13 12 22 -8 82 -31 93 -46 93 -46 -1 0 -61 3 -77 18 -85 13 -8 7 -10
-31 -11 -43 0 -46 2 -36 18 13 20 -10 147 -27 147 -15 0 -28 -126 -15 -147 10
-17 7 -18 -46 -18 -44 1 -54 3 -40 11 13 8 17 24 17 79 0 38 -4 71 -9 74 -5 4
-22 -26 -37 -65z m476 -239 l0 -60 -140 0 -140 0 0 60 0 60 140 0 140 0 0 -60z
m-316 -112 c15 -24 -3 -52 -37 -56 -33 -4 -53 28 -37 59 14 25 58 23 74 -3z
m206 -82 c0 -18 -27 -46 -44 -46 -18 0 -36 21 -36 42 0 14 8 18 40 18 28 0 40
-4 40 -14z"/>
<path d="M243 363 l-70 -87 27 -23 c16 -13 41 -23 58 -23 24 0 31 -5 34 -21 2
-12 15 -31 30 -42 38 -28 87 -14 108 30 10 22 22 33 38 33 21 0 22 3 22 110
l0 110 -88 0 -89 0 -70 -87z m227 32 l0 -35 -101 0 -100 0 27 35 c26 34 28 35
100 35 l74 0 0 -35z m-82 -137 c22 -22 14 -57 -14 -64 -38 -10 -61 17 -46 51
12 27 40 33 60 13z"/>
</g>
</svg>
