<?xml version="1.0" encoding="UTF-8"?><svg id="a" xmlns="http://www.w3.org/2000/svg" viewBox="0 0 32 32"><defs><style>.b,.c{fill:#fff;}.d{fill:#165dd6;}.c{stroke:#000;stroke-miterlimit:10;stroke-width:.03px;}</style></defs><rect class="d" width="32" height="32" rx="6.42" ry="6.42"/><path class="c" d="M7.09,8.92V25.99H24.98V8.92H7.09Zm8.94,14.19c-3.3,0-5.97-2.67-5.97-5.97s2.67-5.97,5.97-5.97,5.97,2.67,5.97,5.97-2.67,5.97-5.97,5.97Z"/><path class="c" d="M7.09,4.31v3.82H24.98v-3.82H7.09Zm12.41,2.66c-.43,0-.78-.35-.78-.78s.35-.78,.78-.78,.78,.35,.78,.78-.35,.78-.78,.78Zm2.63,0c-.43,0-.78-.35-.78-.78s.35-.78,.78-.78,.78,.35,.78,.78-.35,.78-.78,.78Z"/><path class="b" d="M21.37,17.25c0,2.96-2.4,5.36-5.36,5.36s-5.36-2.4-5.36-5.36c2.54-.09,6.58-.09,10.71,0Z"/></svg>