<?xml version="1.0" encoding="UTF-8"?><svg id="a" xmlns="http://www.w3.org/2000/svg" viewBox="0 0 32 32"><defs><style>.b{fill:#fff;}.c{fill:#165dd6;}</style></defs><rect class="c" x="0" width="32" height="32" rx="6.42" ry="6.42"/><path class="b" d="M6.62,12.65s3.49,.58,7.04,.46,5.4-2.18,5.4-2.18c0,0,.44,1.26,1.71,1.9,1.27,.64,2.08,.56,2.08,.56,0,0,.27,4.4-.94,6.95-.39,.94-.29,2.41-.24,3.03s-.11,2.81,1.21,2.61c.14-.02,.39,.34,.38,.65s-.26,.58-.55,.58h-1.79c-.27,0-.58-.42-.58-1.79s.03-3.64,.03-3.64c0,0-.63-.93-.91,1.24-.12,.94-.58,2.15,.27,2.94s.15,1.24-.06,1.24h-1.18c-.33,0-.93-.21-.76-1.64,.17-1.43,.33-5.55,.33-5.55,0,0-1.88-.55-3.03-.94-1.15-.39-2.37-1.06-2.37-1.06,0,0-.36-.24-1-.09s-1,.46-1.09,1.15c-.09,.7,.12,1.09-.09,1.76s-.88,1.21-1.12,2.25c-.24,1.03,.88,2.58,1.09,2.88s.3,1.52-.79,1.43c-1.09-.09-1.88-1.79-1.94-2.03s-.03-3.16-.03-3.16c0,0-.67-.36-.76,1.03-.09,1.4-.27,2.52,.15,3.06s.61,1.52,.12,1.64-1.3-.15-1.7-.46-.67-1.46-.76-1.88-.09-2.46,0-2.64,.82-.85,.82-2.15-.79-2.22-.82-3.85c-.03-1.64,.85-1.94,.82-2.64-.03-.7-.97-1.27-1.06-3.19s.27-2.06,.76-2.03,.27,1.27,.61,2.34c.27,.87,.74,1.23,.74,1.23Z"/><path class="b" d="M19.84,10.3s.33,.97,1.49,1.55,2.22,.7,2.22,.7c0,0,.21-.82,.82-.82s.7,.88,1.91,.82,1.85-1,1.88-1.12,.49-1.46,0-1.76-.85,.64-1.55,0c-.7-.64-2.06-2.03-2.06-2.03l-.03-1.79s.18-.55-.52-.73-1.4,1.58-1.4,1.58l-2.76,3.61Z"/></svg>