<?xml version="1.0" encoding="utf-8"?>
<!-- Generator: Adobe Illustrator 25.0.1, SVG Export Plug-In . SVG Version: 6.00 Build 0)  -->
<svg version="1.1" xmlns="http://www.w3.org/2000/svg" xmlns:xlink="http://www.w3.org/1999/xlink" x="0px" y="0px"
	 viewBox="0 0 24 24" enable-background="new 0 0 24 24" xml:space="preserve">
<g id="Calque_1">
	<circle fill="#007431" cx="12" cy="12" r="12"/>
	<g>
		<path fill="#F2F2F2" d="M11.7,21C11.7,21,11.7,21,11.7,21c-0.6,0-1.1-0.5-1.1-1.2l0-4c0-0.6,0.5-1.2,1.1-1.2
			c0.6,0,1.1,0.5,1.1,1.2l0,4C12.8,20.5,12.3,21,11.7,21z"/>
		<path fill="#F2F2F2" d="M6.9,18.6c-0.4,0-0.7-0.2-0.9-0.5c-0.3-0.5-0.3-1.1,0.1-1.5c0.2-0.2,0.5-0.5,1.3-1c0,0,0,0,0,0
			c-0.4,0-0.7-0.2-0.9-0.5c-0.3-0.4-0.3-0.9,0-1.3c0.3-0.4,0.8-1,2.3-1.9c0,0,0,0-0.1,0c-0.5,0.1-1.1-0.2-1.3-0.7
			c-0.2-0.5,0-1.1,0.4-1.4l2-1.3l-0.3,0c-0.4,0-0.8-0.3-1-0.7C8.5,7.3,8.6,6.8,8.9,6.5l2.7-3.1c0.4-0.5,1.1-0.5,1.6-0.1
			c0.5,0.4,0.5,1.2,0.1,1.7l-1.1,1.3l1.4,0.1c0.5,0,0.9,0.4,1,0.9c0.1,0.5-0.1,1-0.5,1.3l-1,0.6c0.5,0,1,0.1,1.5,0.3
			c0.5,0.2,0.8,0.6,0.8,1.1c0,0.5-0.3,0.9-0.7,1.1c0,0-0.3,0.1-0.7,0.3c1.2-0.1,1.8,0,2.1,0.2c0.4,0.2,0.7,0.6,0.7,1.1
			c0,0.5-0.3,0.9-0.7,1.1c0,0-0.5,0.2-1.3,0.5c1.1,0.1,2.3,0.4,3.4,0.8c0.6,0.2,0.9,0.9,0.6,1.5c-0.2,0.6-0.9,0.9-1.5,0.6
			c-2.3-1-4.9-0.8-6.6-0.4c-1.9,0.4-3.3,1.1-3.3,1.1C7.3,18.5,7.1,18.6,6.9,18.6z"/>
	</g>
</g>
<g id="Calque_2" display="none">
</g>
</svg>
