<?xml version="1.0" encoding="UTF-8"?><svg id="a" xmlns="http://www.w3.org/2000/svg" viewBox="0 0 32 32"><defs><style>.b{fill:#fff;}.c{fill:#165dd6;}</style></defs><rect class="c" x="0" width="32" height="32" rx="6.42" ry="6.42"/><path class="b" d="M12.07,8.08c-4.48,0-8.12,3.63-8.12,8.12s3.63,8.12,8.12,8.12c1.87,0,3.41-.57,4.79-1.64,0,0,.76-3.26,1.42-4.67s1.31-2.89,1.99-3.86c-.99-3.37-4.51-6.07-8.19-6.07Zm2.75,8.01c-2.32-2.5-5.6-4.81-5.6-4.81,3.56,.36,7.92,7.3,5.6,4.81Zm-1.78,1.9c-2.32-2.5-5.6-4.81-5.6-4.81,3.56,.36,7.92,7.3,5.6,4.81Zm-1.48,2.23c-2.32-2.5-5.6-4.81-5.6-4.81,3.56,.36,7.92,7.3,5.6,4.81Z"/><path class="b" d="M27.64,7.58c-1.52-.83-4.95,2.5-7.66,7.44-2.71,4.94-3.68,9.62-2.16,10.46,1.52,.83,4.95-2.5,7.66-7.44,2.71-4.94,3.68-9.62,2.16-10.46Zm-6.04,13.47c-.87-1.38-2.43-2.36-2.43-2.36,2.25-.65,3.3,3.74,2.43,2.36Zm4.82-8.25c-.87-1.38-2.43-2.36-2.43-2.36,2.25-.65,3.3,3.74,2.43,2.36Zm-1.6,2.47c-.87-1.38-2.43-2.36-2.43-2.36,2.25-.65,3.3,3.74,2.43,2.36Zm-1.36,2.83c-.87-1.38-2.43-2.36-2.43-2.36,2.25-.65,3.3,3.74,2.43,2.36Z"/></svg>