<?xml version="1.0" encoding="utf-8"?>
<!-- Generator: Adobe Illustrator 25.0.1, SVG Export Plug-In . SVG Version: 6.00 Build 0)  -->
<svg version="1.1" xmlns="http://www.w3.org/2000/svg" xmlns:xlink="http://www.w3.org/1999/xlink" x="0px" y="0px"
	 viewBox="0 0 24 24" enable-background="new 0 0 24 24" xml:space="preserve">
<g id="Calque_1">
	<circle fill="#3C6292" cx="12" cy="12" r="12"/>
	<g>
		<path fill="#FBC200" d="M8.1,4.3C9.1,4.1,10.4,4,12,4c2,0,3.5,0.5,4.5,1.3c0.9,0.8,1.4,1.9,1.4,3.3c0,1.4-0.4,2.6-1.2,3.4
			c-1.1,1.2-2.9,1.7-4.9,1.7c-0.6,0-1.2,0-1.6-0.1V20H8.1V4.3z M10.2,12c0.4,0.1,1,0.2,1.7,0.2c2.5,0,4-1.2,4-3.4
			c0-2.1-1.5-3.1-3.7-3.1c-0.9,0-1.6,0.1-1.9,0.2V12z"/>
	</g>
</g>
<g id="Calque_2">
</g>
</svg>
