<?xml version="1.0" encoding="utf-8"?>
<!-- Generator: Adobe Illustrator 25.0.1, SVG Export Plug-In . SVG Version: 6.00 Build 0)  -->
<svg version="1.1" xmlns="http://www.w3.org/2000/svg" xmlns:xlink="http://www.w3.org/1999/xlink" x="0px" y="0px"
	 viewBox="0 0 24 24" enable-background="new 0 0 24 24" xml:space="preserve">
<g id="Calque_1">
	<circle fill="#40291A" cx="12" cy="12" r="12"/>
	<g display="none">
		<path display="inline" fill="#4A2718" d="M11.2,19.5C11.2,19.5,11.2,19.5,11.2,19.5c-0.6,0-1.1-0.5-1.1-1.1l0-3.6
			c0-0.6,0.5-1.1,1.1-1.1c0.6,0,1.1,0.5,1.1,1.1l0,3.6C12.3,19,11.8,19.5,11.2,19.5z"/>
		<path display="inline" fill="#007431" d="M6.7,17.3c-0.3,0-0.7-0.2-0.9-0.4c-0.3-0.4-0.3-1,0.1-1.4c0.2-0.2,0.5-0.5,1.3-0.9
			c0,0,0,0,0,0c-0.3,0-0.7-0.2-0.9-0.4c-0.3-0.4-0.3-0.9,0-1.2C6.5,12.5,7,12,8.5,11.1c0,0,0,0-0.1,0c-0.5,0.1-1-0.2-1.2-0.6
			c-0.2-0.5,0-1,0.4-1.3L9.6,8L9.3,8c-0.4,0-0.8-0.3-0.9-0.7C8.2,6.9,8.3,6.5,8.6,6.2l2.5-2.8c0.4-0.4,1.1-0.5,1.5-0.1
			c0.4,0.4,0.5,1.1,0.1,1.5L11.6,6L13,6.1c0.5,0,0.9,0.4,1,0.8C14,7.3,13.9,7.8,13.5,8l-0.9,0.6c0.5,0,1,0.1,1.4,0.2
			c0.4,0.1,0.7,0.5,0.7,1c0,0.5-0.3,0.9-0.7,1c0,0-0.3,0.1-0.7,0.3c1.1-0.1,1.7,0,2,0.2c0.4,0.2,0.7,0.6,0.7,1c0,0.4-0.3,0.9-0.7,1
			c0,0-0.5,0.2-1.2,0.5c1.1,0.1,2.2,0.3,3.2,0.8c0.5,0.2,0.8,0.9,0.6,1.4c-0.2,0.5-0.9,0.8-1.4,0.6c-2.2-0.9-4.6-0.7-6.2-0.4
			c-1.8,0.4-3.1,1-3.1,1C7,17.2,6.9,17.3,6.7,17.3z"/>
	</g>
	<g>
		<path fill="#FFFFFF" d="M14.3,4.7c0,0-0.1,3.2-3,5.9c0,0-0.6,0.8,2.1-1.1c0,0-0.3,1.7-2.4,2.9c0,0,0.4,0.8,2.9-1.3
			c0,0,0.3,1.4-2.5,3.1c0,0,1.8,0.2,3.2-0.7c0,0,0,2.1-0.5,2.6h2.5c0,0-0.8-0.6-1-3c0,0,2,0.7,3.6-0.1c0,0-2.3-0.6-3.2-2.1
			c0,0,0.7,0.8,3.5,0.6c0,0-2.5-0.8-3.7-2.5c0,0,1,0.8,3.5,0.5C19.1,9.6,15.7,8.7,14.3,4.7z"/>
		<rect x="4" y="16.1" fill="#FFFFFF" width="16" height="1.2"/>
		<rect x="7" y="14.1" fill="#FFFFFF" width="2.2" height="0.2"/>
		<rect x="6" y="14.9" fill="#FFFFFF" width="0.7" height="0.4"/>
		<rect x="6.6" y="15" fill="#FFFFFF" width="3.5" height="0.3"/>
		<rect x="9.3" y="14.9" fill="#FFFFFF" width="0.7" height="0.4"/>
		<g>
			<polygon fill="#FFFFFF" points="7.7,14.3 6.8,16.5 9.5,16.5 8.5,14.3 			"/>
			<path fill="#FFFFFF" d="M9.6,16.6l-3,0l1-2.3h1L9.6,16.6z M6.9,16.4l2.4,0l-0.8-2H7.8L6.9,16.4z"/>
		</g>
	</g>
</g>
<g id="Calque_2">
</g>
</svg>
