<?xml version="1.0" encoding="UTF-8"?><svg id="a" xmlns="http://www.w3.org/2000/svg" viewBox="0 0 32 32"><defs><style>.b{fill:#fff;}.c{fill:#165dd6;}</style></defs><rect class="c" x="0" width="32" height="32" rx="6.42" ry="6.42"/><path class="b" d="M8.07,8.53v-.02l-.12,.18c.12-.15,.26-.29,.41-.4l-.18,.14c.17-.13,.35-.23,.54-.32l-.21,.09c.19-.08,.4-.14,.61-.17l-.23,.03c.22-.03,.45-.03,.67,0l-.23-.03c.18,.03,.36,.07,.53,.14l-.21-.09c.16,.07,.32,.16,.46,.27l-.18-.14c.13,.1,.25,.22,.35,.35l-.14-.18s.07,.09,.1,.15l-.12-.45v7.43c0,.34,0,.69,0,1.03,0,0,0,0,0,.01,0,.46,.41,.9,.88,.88,.48-.02,.88-.39,.88-.88V8.15c0-.43-.26-.77-.56-1.05-.32-.31-.69-.52-1.11-.67-.52-.18-1.08-.18-1.62-.09-.69,.12-1.39,.52-1.84,1.05-.07,.08-.13,.17-.2,.25-.13,.18-.14,.48-.09,.68s.21,.43,.41,.53c.2,.11,.45,.16,.68,.09s.39-.21,.53-.41h0Z"/><path class="b" d="M14.88,8.5v-.02l-.12,.18c.12-.15,.26-.29,.41-.4l-.18,.14c.17-.13,.35-.23,.54-.32l-.21,.09c.19-.08,.4-.14,.61-.17l-.23,.03c.22-.03,.45-.03,.67,0l-.23-.03c.18,.03,.36,.07,.53,.14l-.21-.09c.16,.07,.32,.16,.46,.27l-.18-.14c.13,.1,.25,.22,.35,.35l-.14-.18s.07,.09,.1,.15l-.12-.45v7.43c0,.34,0,.69,0,1.03,0,0,0,0,0,.01,0,.46,.41,.9,.88,.88s.88-.39,.88-.88V8.12c0-.43-.26-.77-.56-1.05-.32-.31-.69-.52-1.11-.67-.52-.18-1.08-.18-1.62-.09-.69,.12-1.39,.52-1.84,1.05-.07,.08-.13,.17-.2,.25-.13,.18-.14,.48-.09,.68s.21,.43,.41,.53c.2,.11,.45,.16,.68,.09s.39-.21,.53-.41h0Z"/><path class="b" d="M11.33,11.51h6.35c.46,0,.9-.41,.88-.88s-.39-.88-.88-.88h-6.35c-.46,0-.9,.41-.88,.88s.39,.88,.88,.88h0Z"/><path class="b" d="M11.16,13.99h6.35c.46,0,.9-.41,.88-.88s-.39-.88-.88-.88h-6.35c-.46,0-.9,.41-.88,.88s.39,.88,.88,.88h0Z"/><path class="b" d="M6.36,16.35c.12,.21,.29,.41,.45,.59,.32,.35,.73,.66,1.17,.86,.31,.14,.61,.25,.95,.3,.21,.03,.42,.06,.63,.06,.19,0,.38-.03,.57-.05,.54-.08,1.06-.33,1.54-.59,.51-.28,1-.6,1.54-.83l-.2,.09c.34-.14,.69-.25,1.05-.3l-.22,.03c.31-.04,.62-.04,.93,0l-.22-.03c.45,.06,.88,.21,1.3,.38l-.2-.09c.47,.2,.93,.44,1.39,.65,.51,.24,1.04,.46,1.59,.57,.62,.12,1.24,.12,1.85-.04,.5-.13,.99-.36,1.44-.62s.88-.52,1.35-.72l-.2,.09c.28-.12,.57-.2,.87-.25l-.22,.03c.31-.04,.62-.03,.92,.01l-.22-.03c.33,.05,.64,.13,.95,.26l-.2-.09c.28,.12,.55,.27,.79,.46l-.17-.13c.1,.08,.2,.16,.28,.25,.14,.16,.39,.25,.6,.25s.46-.09,.6-.25,.26-.37,.25-.6-.09-.42-.25-.6-.35-.31-.53-.44c-.38-.28-.82-.48-1.27-.61-.66-.2-1.36-.24-2.03-.13-.55,.09-1.07,.33-1.56,.59s-.97,.58-1.49,.8l.2-.09c-.29,.12-.58,.21-.89,.25l.22-.03c-.28,.04-.57,.03-.85,0l.22,.03c-.43-.06-.85-.2-1.26-.37l.2,.09c-1.05-.44-2.05-1.1-3.2-1.27-.34-.05-.67-.08-1.01-.06-.32,.03-.64,.08-.95,.17-.52,.15-1.02,.4-1.49,.67-.44,.25-.87,.53-1.34,.73l.2-.09c-.24,.1-.49,.18-.75,.22l.22-.03c-.23,.03-.46,.03-.7,0l.22,.03c-.25-.03-.5-.1-.73-.2l.2,.09c-.23-.1-.45-.23-.65-.38l.17,.13c-.21-.17-.41-.36-.57-.57l.13,.17c-.05-.07-.11-.14-.15-.22-.1-.18-.3-.33-.51-.39s-.47-.03-.65,.09c-.39,.25-.54,.75-.3,1.16h0Z"/><path class="b" d="M5.89,19.61c.14,.21,.31,.41,.5,.59,.37,.36,.8,.68,1.27,.89,.69,.32,1.45,.49,2.21,.45,.72-.04,1.39-.26,2.03-.61,.54-.3,1.04-.67,1.61-.91l-.2,.09c.28-.12,.58-.2,.88-.25l-.22,.03c.29-.04,.58-.04,.87,0l-.22-.03c.29,.04,.57,.12,.84,.24l-.2-.09c.45,.19,.87,.46,1.31,.69,.54,.29,1.11,.54,1.72,.66,.8,.16,1.62,.15,2.43-.01,.58-.12,1.15-.36,1.66-.66,.42-.25,.81-.55,1.26-.74l-.2,.09c.21-.09,.42-.15,.65-.18l-.22,.03c.3-.04,.61-.03,.91,0l-.22-.03c.31,.04,.61,.12,.9,.24l-.2-.09c.25,.11,.48,.24,.7,.41l-.17-.13c.12,.1,.25,.2,.34,.32,.13,.16,.41,.25,.6,.25,.21,0,.46-.09,.6-.25s.26-.37,.25-.6l-.03-.22c-.04-.14-.11-.27-.22-.37-.15-.19-.37-.35-.57-.49-.16-.12-.33-.22-.51-.31-.29-.14-.59-.26-.9-.33-.64-.15-1.34-.18-1.98-.01-.44,.11-.85,.33-1.23,.57-.4,.25-.8,.52-1.24,.71l.2-.09c-.36,.15-.74,.25-1.13,.3l.22-.03c-.46,.06-.92,.07-1.37,0l.22,.03c-.41-.06-.81-.17-1.2-.33l.2,.09c-.87-.37-1.62-.96-2.54-1.22-.62-.17-1.25-.17-1.88-.06-.56,.1-1.09,.35-1.57,.63s-.93,.59-1.43,.81l.2-.09c-.28,.12-.58,.2-.88,.25l.22-.03c-.33,.04-.66,.04-.99,0l.22,.03c-.32-.04-.64-.13-.94-.25l.2,.09c-.31-.13-.6-.3-.87-.51l.17,.13c-.24-.19-.46-.4-.65-.64l.13,.17s-.04-.05-.06-.08c-.12-.18-.29-.33-.51-.39-.2-.06-.47-.03-.65,.09s-.34,.29-.39,.51-.04,.46,.09,.65h0Z"/><path class="b" d="M5.89,22.89c.14,.21,.31,.41,.5,.59,.37,.36,.8,.68,1.27,.89,.69,.32,1.45,.49,2.21,.45,.72-.04,1.39-.26,2.03-.61,.54-.3,1.04-.67,1.61-.91l-.2,.09c.28-.12,.58-.2,.88-.25l-.22,.03c.29-.04,.58-.04,.87,0l-.22-.03c.29,.04,.57,.12,.84,.24l-.2-.09c.45,.19,.87,.46,1.31,.69,.54,.29,1.11,.54,1.72,.66,.8,.16,1.62,.15,2.43-.01,.58-.12,1.15-.36,1.66-.66,.42-.25,.81-.55,1.26-.74l-.2,.09c.21-.09,.42-.15,.65-.18l-.22,.03c.3-.04,.61-.03,.91,0l-.22-.03c.31,.04,.61,.12,.9,.24l-.2-.09c.25,.11,.48,.24,.7,.41l-.17-.13c.12,.1,.25,.2,.34,.32,.13,.16,.41,.25,.6,.25,.21,0,.46-.09,.6-.25s.26-.37,.25-.6l-.03-.22c-.04-.14-.11-.27-.22-.37-.15-.19-.37-.35-.57-.49-.16-.12-.33-.22-.51-.31-.29-.14-.59-.26-.9-.33-.64-.15-1.34-.18-1.98-.01-.44,.11-.85,.33-1.23,.57-.4,.25-.8,.52-1.24,.71l.2-.09c-.36,.15-.74,.25-1.13,.3l.22-.03c-.46,.06-.92,.07-1.37,0l.22,.03c-.41-.06-.81-.17-1.2-.33l.2,.09c-.87-.37-1.62-.96-2.54-1.22-.62-.17-1.25-.17-1.88-.06-.56,.1-1.09,.35-1.57,.63s-.93,.59-1.43,.81l.2-.09c-.28,.12-.58,.2-.88,.25l.22-.03c-.33,.04-.66,.04-.99,0l.22,.03c-.32-.04-.64-.13-.94-.25l.2,.09c-.31-.13-.6-.3-.87-.51l.17,.13c-.24-.19-.46-.4-.65-.64l.13,.17s-.04-.05-.06-.08c-.12-.18-.29-.33-.51-.39-.2-.06-.47-.03-.65,.09s-.34,.29-.39,.51-.04,.46,.09,.65h0Z"/></svg>