<?xml version="1.0" encoding="UTF-8"?><svg id="a" xmlns="http://www.w3.org/2000/svg" viewBox="0 0 32 32"><defs><style>.b{fill:#fff;}.c{fill:#165dd6;}</style></defs><rect class="c" x="0" width="32" height="32" rx="6.42" ry="6.42"/><polygon class="b" points="9.95 15.17 9.41 12.34 8.05 12.34 7.66 15.41 7 12.34 5.52 12.34 6.85 17.61 8.14 17.61 8.78 14.57 9.41 17.61 10.65 17.61 12.03 12.34 10.56 12.34 9.95 15.17"/><path class="b" d="M27.72,13.07c.02-.74-1.08-3.22-3.41-3.22h-2.29s-1.63-3.04-6.54-3.01-6.54,2.92-6.54,2.92c0,0-.93,.06-2.17,.09-1.24,.03-3.56,1.87-3.56,3.19v4.16c0,.96,2.05,3.07,3.68,3.04,1.63-.03,2.35,0,2.35,0,0,0,2.35,3.04,6.24,3.1,3.89,.06,6.3-3.19,6.3-3.19h2.83s3.13-.75,3.1-3.56c-.03-2.8-.02-2.79,0-3.53Zm-13.79,4.54h-1.27v-3.8h1.27v3.8Zm-.6-4.16c-.43,0-.78-.35-.78-.78s.35-.78,.78-.78,.78,.35,.78,.78-.35,.78-.78,.78Zm13.65,3.56c0,.42-1.22,2.47-3.25,2.41q-2.04-.06-9.22-.06s1.78-1.11,1.78-2.59v-3.56c0-.42,.53-2.56,2.72-2.59s5.25,0,5.63,0,2.31,.66,2.34,2.83,0,3.13,0,3.56Z"/><polygon class="b" points="17.76 17.61 19.26 17.61 19.26 15.74 22.04 15.74 22.04 14.63 19.32 14.63 19.35 13.45 22.34 13.45 22.34 12.34 17.76 12.34 17.76 17.61"/><rect class="b" x="23.09" y="13.81" width="1.54" height="3.8"/><circle class="b" cx="23.84" cy="12.67" r=".78"/><polygon class="c" points="10.65 17.61 9.41 17.61 8.78 14.57 8.14 17.61 6.85 17.61 5.52 12.34 7 12.34 7.66 15.41 8.05 12.34 9.41 12.34 9.95 15.17 10.56 12.34 12.03 12.34 10.65 17.61"/></svg>